<svg viewBox="575 418.0201 380 66.9597" width="5000" height="881.0486842105263" xmlns="http://www.w3.org/2000/svg" xmlns:xlink="http://www.w3.org/1999/xlink" preserveAspectRatio="none"><defs></defs><style>.aIptOCySncolors-0 {fill:#71DB77;fill-opacity:1;}.aIptOCySncolors-1 {fill:#D9D9D9;fill-opacity:1;}.aIptOCySncolors-2 {fill:#696969;fill-opacity:0.95;}.aIptOCySncolors-3 {fill:#000000;fill-opacity:1;}.aIptOCySncolors-4 {fill:#434242;fill-opacity:1;}.aIptOCySncolors-5 {fill:#908E8E;fill-opacity:1;}.aIptOCySncolors-6 {fill:#B8B7B7;fill-opacity:1;}.aIptOCySncolors-7 {fill:#D7FFD9;fill-opacity:1;}.atBXipXk0bfillColor {fill:#2F2F2F;fill-opacity:0;}.background {fill:#1A1A1A;fill-opacity:1;}.companyName {fill:#71DB77;fill-opacity:1;}.icon3-str {stroke:#696969;stroke-opacity:0.95;}.text-str {stroke:#71DB77;stroke-opacity:1;}</style><g opacity="1" transform="rotate(0 639.1104 418.0201)">
<svg width="315.8896" height="66.9597" x="639.1104" y="418.0201" version="1.1" preserveAspectRatio="none" viewBox="0 0 315.8896 66.9597">
  <rect x="0" y="0" width="315.8896" height="66.9597" class="companyName text-str" style="stroke-width:0;" rx="0px" ry="0px" />
</svg>
</g><g opacity="1" transform="rotate(0 660.4806 439.3902)">
<svg width="273.1492" height="24.2195" x="660.4806" y="439.3902" version="1.1" preserveAspectRatio="none" viewBox="3.32 -31.48 358.64000000000004 31.8">
  <g transform="matrix(1 0 0 1 0 0)" class="background"><path id="id-D6z1nYkh16" d="M22.60-28L29-28L29 0L23.68 0L9.72-17L9.72 0L3.32 0L3.32-28L8.68-28L22.60-11L22.60-28Z M35.20 0L35.20-21.52L41.44-21.52L41.44 0L35.20 0ZM38.32-24.52Q36.60-24.52 35.52-25.52Q34.44-26.52 34.44-28L34.44-28Q34.44-29.48 35.52-30.48Q36.60-31.48 38.32-31.48L38.32-31.48Q40.04-31.48 41.12-30.52Q42.20-29.56 42.20-28.12L42.20-28.12Q42.20-26.56 41.12-25.54Q40.04-24.52 38.32-24.52L38.32-24.52Z M57.64 0.32Q54.20 0.32 51.46-1.10Q48.72-2.52 47.18-5.04Q45.64-7.56 45.64-10.76L45.64-10.76Q45.64-13.96 47.18-16.48Q48.72-19 51.46-20.42Q54.20-21.84 57.64-21.84L57.64-21.84Q61.04-21.84 63.58-20.42Q66.12-19 67.28-16.36L67.28-16.36L62.44-13.76Q60.76-16.72 57.60-16.72L57.60-16.72Q55.16-16.72 53.56-15.12Q51.96-13.52 51.96-10.76L51.96-10.76Q51.96-8 53.56-6.40Q55.16-4.80 57.60-4.80L57.60-4.80Q60.80-4.80 62.44-7.76L62.44-7.76L67.28-5.12Q66.12-2.56 63.58-1.12Q61.04 0.32 57.64 0.32L57.64 0.32Z M83.80-21.84Q87.80-21.84 90.26-19.44Q92.72-17.04 92.72-12.32L92.72-12.32L92.72 0L86.48 0L86.48-11.36Q86.48-13.92 85.36-15.18Q84.24-16.44 82.12-16.44L82.12-16.44Q79.76-16.44 78.36-14.98Q76.96-13.52 76.96-10.64L76.96-10.64L76.96 0L70.72 0L70.72-29.68L76.96-29.68L76.96-19.28Q78.20-20.52 79.96-21.18Q81.72-21.84 83.80-21.84L83.80-21.84Z M108.84 0.32Q105.44 0.32 102.74-1.10Q100.04-2.52 98.52-5.04Q97-7.56 97-10.76L97-10.76Q97-13.96 98.52-16.48Q100.04-19 102.74-20.42Q105.44-21.84 108.84-21.84L108.84-21.84Q112.24-21.84 114.92-20.42Q117.60-19 119.12-16.48Q120.64-13.96 120.64-10.76L120.64-10.76Q120.64-7.56 119.12-5.04Q117.60-2.52 114.92-1.10Q112.24 0.32 108.84 0.32L108.84 0.32ZM108.84-4.80Q111.24-4.80 112.78-6.42Q114.32-8.04 114.32-10.76L114.32-10.76Q114.32-13.48 112.78-15.10Q111.24-16.72 108.84-16.72L108.84-16.72Q106.44-16.72 104.88-15.10Q103.32-13.48 103.32-10.76L103.32-10.76Q103.32-8.04 104.88-6.42Q106.44-4.80 108.84-4.80L108.84-4.80Z M124.80 0L124.80-29.68L131.04-29.68L131.04 0L124.80 0Z M145.52-21.84Q150.52-21.84 153.20-19.46Q155.88-17.08 155.88-12.28L155.88-12.28L155.88 0L150.04 0L150.04-2.68Q148.28 0.32 143.48 0.32L143.48 0.32Q141 0.32 139.18-0.52Q137.36-1.36 136.40-2.84Q135.44-4.32 135.44-6.20L135.44-6.20Q135.44-9.20 137.70-10.92Q139.96-12.64 144.68-12.64L144.68-12.64L149.64-12.64Q149.64-14.68 148.40-15.78Q147.16-16.88 144.68-16.88L144.68-16.88Q142.96-16.88 141.30-16.34Q139.64-15.80 138.48-14.88L138.48-14.88L136.24-19.24Q138-20.48 140.46-21.16Q142.92-21.84 145.52-21.84L145.52-21.84ZM145.04-3.88Q146.64-3.88 147.88-4.62Q149.12-5.36 149.64-6.80L149.64-6.80L149.64-9L145.36-9Q141.52-9 141.52-6.48L141.52-6.48Q141.52-5.28 142.46-4.58Q143.40-3.88 145.04-3.88L145.04-3.88Z M168.76 0.32Q166.08 0.32 163.52-0.34Q160.96-1 159.44-2L159.44-2L161.52-6.48Q162.96-5.56 165.00-4.98Q167.04-4.40 169-4.40L169-4.40Q172.96-4.40 172.96-6.36L172.96-6.36Q172.96-7.28 171.88-7.68Q170.80-8.08 168.56-8.36L168.56-8.36Q165.92-8.76 164.20-9.28Q162.48-9.80 161.22-11.12Q159.96-12.44 159.96-14.88L159.96-14.88Q159.96-16.92 161.14-18.50Q162.32-20.08 164.58-20.96Q166.84-21.84 169.92-21.84L169.92-21.84Q172.20-21.84 174.46-21.34Q176.72-20.84 178.20-19.96L178.20-19.96L176.12-15.52Q173.28-17.12 169.92-17.12L169.92-17.12Q167.92-17.12 166.92-16.56Q165.92-16 165.92-15.12L165.92-15.12Q165.92-14.12 167-13.72Q168.08-13.32 170.44-12.96L170.44-12.96Q173.08-12.52 174.76-12.02Q176.44-11.52 177.68-10.20Q178.92-8.88 178.92-6.52L178.92-6.52Q178.92-4.52 177.72-2.96Q176.52-1.40 174.22-0.54Q171.92 0.32 168.76 0.32L168.76 0.32Z M219.32 0L212.36 0L206.96-7.80L206.64-7.80L201.00-7.80L201.00 0L194.52 0L194.52-28L206.64-28Q210.36-28 213.10-26.76Q215.84-25.52 217.32-23.24Q218.80-20.96 218.80-17.84L218.80-17.84Q218.80-14.72 217.30-12.46Q215.80-10.20 213.04-9L213.04-9L219.32 0ZM212.24-17.84Q212.24-20.20 210.72-21.46Q209.20-22.72 206.28-22.72L206.28-22.72L201.00-22.72L201.00-12.96L206.28-12.96Q209.20-12.96 210.72-14.24Q212.24-15.52 212.24-17.84L212.24-17.84Z M233.72 0.32Q230.32 0.32 227.62-1.10Q224.92-2.52 223.40-5.04Q221.88-7.56 221.88-10.76L221.88-10.76Q221.88-13.96 223.40-16.48Q224.92-19 227.62-20.42Q230.32-21.84 233.72-21.84L233.72-21.84Q237.12-21.84 239.80-20.42Q242.48-19 244.00-16.48Q245.52-13.96 245.52-10.76L245.52-10.76Q245.52-7.56 244.00-5.04Q242.48-2.52 239.80-1.10Q237.12 0.32 233.72 0.32L233.72 0.32ZM233.72-4.80Q236.12-4.80 237.66-6.42Q239.20-8.04 239.20-10.76L239.20-10.76Q239.20-13.48 237.66-15.10Q236.12-16.72 233.72-16.72L233.72-16.72Q231.32-16.72 229.76-15.10Q228.20-13.48 228.20-10.76L228.20-10.76Q228.20-8.04 229.76-6.42Q231.32-4.80 233.72-4.80L233.72-4.80Z M262.40-21.84Q265.40-21.84 267.86-20.46Q270.32-19.08 271.72-16.58Q273.12-14.08 273.12-10.76L273.12-10.76Q273.12-7.44 271.72-4.94Q270.32-2.44 267.86-1.06Q265.40 0.32 262.40 0.32L262.40 0.32Q257.96 0.32 255.64-2.48L255.64-2.48L255.64 0L249.68 0L249.68-29.68L255.92-29.68L255.92-19.24Q258.28-21.84 262.40-21.84L262.40-21.84ZM261.32-4.80Q263.72-4.80 265.26-6.42Q266.80-8.04 266.80-10.76L266.80-10.76Q266.80-13.48 265.26-15.10Q263.72-16.72 261.32-16.72L261.32-16.72Q258.92-16.72 257.38-15.10Q255.84-13.48 255.84-10.76L255.84-10.76Q255.84-8.04 257.38-6.42Q258.92-4.80 261.32-4.80L261.32-4.80Z M290.00-21.84Q293.00-21.84 295.46-20.46Q297.92-19.08 299.32-16.58Q300.72-14.08 300.72-10.76L300.72-10.76Q300.72-7.44 299.32-4.94Q297.92-2.44 295.46-1.06Q293.00 0.32 290.00 0.32L290.00 0.32Q285.56 0.32 283.24-2.48L283.24-2.48L283.24 0L277.28 0L277.28-29.68L283.52-29.68L283.52-19.24Q285.88-21.84 290.00-21.84L290.00-21.84ZM288.92-4.80Q291.32-4.80 292.86-6.42Q294.40-8.04 294.40-10.76L294.40-10.76Q294.40-13.48 292.86-15.10Q291.32-16.72 288.92-16.72L288.92-16.72Q286.52-16.72 284.98-15.10Q283.44-13.48 283.44-10.76L283.44-10.76Q283.44-8.04 284.98-6.42Q286.52-4.80 288.92-4.80L288.92-4.80Z M304.88 0L304.88-21.52L311.12-21.52L311.12 0L304.88 0ZM308.00-24.52Q306.28-24.52 305.20-25.52Q304.12-26.52 304.12-28L304.12-28Q304.12-29.48 305.20-30.48Q306.28-31.48 308.00-31.48L308.00-31.48Q309.72-31.48 310.80-30.52Q311.88-29.56 311.88-28.12L311.88-28.12Q311.88-26.56 310.80-25.54Q309.72-24.52 308.00-24.52L308.00-24.52Z M330.00-21.84Q334.00-21.84 336.46-19.44Q338.92-17.04 338.92-12.32L338.92-12.32L338.92 0L332.68 0L332.68-11.36Q332.68-13.92 331.56-15.18Q330.44-16.44 328.32-16.44L328.32-16.44Q325.96-16.44 324.56-14.98Q323.16-13.52 323.16-10.64L323.16-10.64L323.16 0L316.92 0L316.92-21.52L322.88-21.52L322.88-19Q324.12-20.36 325.96-21.10Q327.80-21.84 330.00-21.84L330.00-21.84Z M351.80 0.32Q349.12 0.32 346.56-0.34Q344.00-1 342.48-2L342.48-2L344.56-6.48Q346.00-5.56 348.04-4.98Q350.08-4.40 352.04-4.40L352.04-4.40Q356.00-4.40 356.00-6.36L356.00-6.36Q356.00-7.28 354.92-7.68Q353.84-8.08 351.60-8.36L351.60-8.36Q348.96-8.76 347.24-9.28Q345.52-9.80 344.26-11.12Q343.00-12.44 343.00-14.88L343.00-14.88Q343.00-16.92 344.18-18.50Q345.36-20.08 347.62-20.96Q349.88-21.84 352.96-21.84L352.96-21.84Q355.24-21.84 357.50-21.34Q359.76-20.84 361.24-19.96L361.24-19.96L359.16-15.52Q356.32-17.12 352.96-17.12L352.96-17.12Q350.96-17.12 349.96-16.56Q348.96-16 348.96-15.12L348.96-15.12Q348.96-14.12 350.04-13.72Q351.12-13.32 353.48-12.96L353.48-12.96Q356.12-12.52 357.80-12.02Q359.48-11.52 360.72-10.20Q361.96-8.88 361.96-6.52L361.96-6.52Q361.96-4.52 360.76-2.96Q359.56-1.40 357.26-0.54Q354.96 0.32 351.80 0.32L351.80 0.32Z"/></g>
</svg>
</g><g opacity="1" transform="rotate(0 575 418.0201)">
<svg width="66.9598" height="66.9597" x="575" y="418.0201" version="1.1" preserveAspectRatio="none" viewBox="0 0 66.9598 66.9597">
  <rect x="1.339194" y="1.339194" width="64.281412" height="64.281312" class="atBXipXk0bfillColor text-str" style="stroke-width:2.678388;" rx="0px" ry="0px" />
</svg>
</g><g opacity="1" transform="rotate(0 589.2467 430.4463)">
<svg width="38.4663" height="42.1073" x="589.2467" y="430.4463" version="1.1" preserveAspectRatio="none" viewBox="14.961207389831545 11.645062446594238 70.07684326171875 76.70979309082031">
  <g transform="matrix(1 0 0 1 0 0)" class="aIptOCySncolors-0"><path fill-rule="evenodd" clip-rule="evenodd" d="M85.038,37.392c0.003-1.205-0.134-2.388-0.513-3.531  c-1.104-3.334-2.96-6.099-6.07-7.896c-7.226-4.175-14.458-8.337-21.667-12.537c-1.96-1.143-4.048-1.718-6.292-1.777  c-2.474-0.064-4.824,0.383-7,1.646c-7.277,4.223-14.599,8.374-21.843,12.654c-4.319,2.553-6.592,6.477-6.646,11.49  c-0.088,8.382-0.021,16.764-0.027,25.146c-0.001,1.291,0.158,2.553,0.586,3.77c1.14,3.24,2.981,5.927,6.028,7.682  c7.17,4.13,14.342,8.258,21.487,12.428c1.877,1.096,3.855,1.744,6.012,1.861c2.635,0.145,5.141-0.283,7.461-1.631  c7.229-4.195,14.459-8.387,21.712-12.541c2.023-1.16,3.585-2.738,4.772-4.713c1.146-1.904,1.953-3.94,1.973-6.189  c0.037-4.416,0.011-8.832,0.011-13.248h0.012C85.034,45.801,85.029,41.596,85.038,37.392z M42.05,59.72  c0.568,0.603,0.541,1.552-0.062,2.12c-0.29,0.273-0.66,0.409-1.029,0.409c-0.398,0-0.796-0.158-1.091-0.471L29.722,51.026  c-0.546-0.578-0.546-1.481,0-2.06l10.146-10.746c0.569-0.603,1.519-0.629,2.121-0.061c0.602,0.569,0.629,1.519,0.061,2.121  l-9.175,9.716L42.05,59.72z M54.028,39.745l-5.143,21.217c-0.167,0.687-0.78,1.146-1.457,1.146c-0.117,0-0.235-0.014-0.354-0.042  c-0.805-0.195-1.3-1.006-1.104-1.812l5.143-21.217c0.196-0.805,1.006-1.296,1.812-1.104C53.729,38.129,54.224,38.939,54.028,39.745z   M70.278,51.033L60.132,61.779c-0.295,0.313-0.692,0.47-1.091,0.47c-0.37,0-0.74-0.136-1.03-0.409  c-0.602-0.569-0.629-1.519-0.061-2.121l9.175-9.716L57.95,40.28c-0.568-0.603-0.541-1.552,0.062-2.12s1.552-0.54,2.12,0.062  l10.146,10.752C70.824,49.552,70.824,50.455,70.278,51.033z"></path></g>
</svg>
</g></svg>